<svg width="80" height="80" viewBox="0 0 80 80" fill="none" xmlns="http://www.w3.org/2000/svg">
<path d="M34.3333 70H16.6667C14.8986 70 13.2029 69.2976 11.9526 68.0474C10.7024 66.7971 10 65.1014 10 63.3333V16.6667C10 14.8986 10.7024 13.2029 11.9526 11.9526C13.2029 10.7024 14.8986 10 16.6667 10H63.3333C65.1014 10 66.7971 10.7024 68.0474 11.9526C69.2976 13.2029 70 14.8986 70 16.6667V50L59.6667 39.6667C58.4123 38.4373 56.7234 37.7525 54.9671 37.7613C53.2107 37.77 51.5287 38.4715 50.2867 39.7133L20 70M46.6667 63.3333L56.6667 73.3333M56.6667 73.3333V55M56.6667 73.3333L66.6667 63.3333M36.6667 30C36.6667 33.6819 33.6819 36.6667 30 36.6667C26.3181 36.6667 23.3333 33.6819 23.3333 30C23.3333 26.3181 26.3181 23.3333 30 23.3333C33.6819 23.3333 36.6667 26.3181 36.6667 30Z" stroke="white" stroke-opacity="0.5" stroke-width="4" stroke-linecap="round" stroke-linejoin="round"/>
</svg>
