<svg width="40" height="40" viewBox="0 0 40 40" fill="none" xmlns="http://www.w3.org/2000/svg">
<path d="M33.3333 16.6666C33.3333 24.9883 24.1016 33.6549 21.0016 36.3316C20.7128 36.5487 20.3613 36.6662 20 36.6662C19.6386 36.6662 19.2871 36.5487 18.9983 36.3316C15.8983 33.6549 6.66663 24.9883 6.66663 16.6666C6.66663 13.1304 8.07138 9.73898 10.5719 7.23849C13.0724 4.73801 16.4637 3.33325 20 3.33325C23.5362 3.33325 26.9276 4.73801 29.428 7.23849C31.9285 9.73898 33.3333 13.1304 33.3333 16.6666Z" stroke="white" stroke-width="2" stroke-linecap="round" stroke-linejoin="round"/>
<path d="M20 21.6666C22.7614 21.6666 25 19.428 25 16.6666C25 13.9052 22.7614 11.6666 20 11.6666C17.2385 11.6666 15 13.9052 15 16.6666C15 19.428 17.2385 21.6666 20 21.6666Z" stroke="white" stroke-width="2" stroke-linecap="round" stroke-linejoin="round"/>
</svg>
